<svg width="132" height="152" viewBox="0 0 132 152" fill="none" xmlns="http://www.w3.org/2000/svg">
<path d="M0 108.361L15.9654 89.6782C23.8915 92.6222 36.5507 100.073 23.7783 106.323C11.006 112.573 2.60429 110.286 0 108.361Z" fill="#2F7FE3"/>
<path d="M81.3643 8.24734C79.9593 18.5024 58.2405 31.9426 47.5566 37.3809L69.9487 64.1839C68.1925 66.3851 68.895 66.7475 85.7549 50.5881C106.83 30.3888 83.1206 -4.57143 81.3643 8.24734Z" fill="#2F7FE3"/>
<path d="M95.6314 2.75466C94.2264 13.0097 72.5075 26.45 61.8237 31.8882L84.2158 58.6912C82.4596 60.8924 83.1621 61.2549 100.022 45.0954C121.097 24.8962 97.3877 -10.0641 95.6314 2.75466Z" fill="#67A7F7"/>
<path d="M25.5426 139.984C24.1631 140.041 22.9985 138.969 22.9415 137.589C22.8845 136.21 23.9566 135.045 25.3361 134.988L25.5426 139.984ZM51.437 133.21L48.9515 133.479L51.437 133.21ZM48.5783 136.53L48.6815 139.028L48.5783 136.53ZM47.1838 70.6005L53.9225 132.941L48.9515 133.479L42.2127 71.1378L47.1838 70.6005ZM48.6815 139.028L25.5426 139.984L25.3361 134.988L48.475 134.032L48.6815 139.028ZM53.9225 132.941C54.2644 136.104 51.8599 138.896 48.6815 139.028L48.475 134.032C48.764 134.02 48.9826 133.766 48.9515 133.479L53.9225 132.941Z" fill="#F8AB50"/>
<path d="M77.9604 105.499L83.5959 136.23C83.9189 137.992 82.6367 139.642 80.85 139.765L57.8988 141.336" stroke="#F8AB50" stroke-width="5" stroke-linecap="round"/>
<path d="M25.4986 129.955C19.4369 129.955 14.5229 125.041 14.5229 118.979L14.5229 38.8016C14.5229 32.7399 19.4369 27.826 25.4986 27.826L101.055 27.826C107.116 27.826 112.03 32.7399 112.03 38.8016L112.03 118.979C112.03 125.041 107.116 129.955 101.055 129.955L25.4986 129.955Z" fill="#509BF8"/>
<path fill-rule="evenodd" clip-rule="evenodd" d="M76.2629 80.4014C82.9574 78.4376 83.6798 70.0681 81.7115 63.3581C80.0253 57.6101 74.5639 53.3776 68.8291 55.0598C62.2492 56.99 57.4762 63.3047 59.4108 69.8998C61.5958 77.3483 68.8316 82.5813 76.2629 80.4014Z" fill="#FEFEFE"/>
<path fill-rule="evenodd" clip-rule="evenodd" d="M26.506 78.2804C19.7997 76.357 19.027 67.992 20.9549 61.2703C22.6064 55.5122 28.0422 51.2468 33.787 52.8945C40.3784 54.785 45.1894 61.071 43.2945 67.6776C41.1544 75.1391 33.9503 80.4156 26.506 78.2804Z" fill="#FEFEFE"/>
<ellipse cx="35.3277" cy="66.2396" rx="4.07628" ry="6.45411" fill="#2B80E9"/>
<ellipse cx="33.2894" cy="61.8237" rx="1.35876" ry="2.03814" fill="#FEFEFE"/>
<ellipse cx="71.3351" cy="66.2396" rx="4.07628" ry="6.45411" fill="#2B80E9"/>
<ellipse cx="69.2968" cy="61.8237" rx="1.35876" ry="2.03814" fill="#FEFEFE"/>
<path d="M29.8926 84.9803L46.8771 74.1102L63.8616 84.9803H29.8926Z" fill="#FFD88F"/>
<path d="M55.709 84.9802L46.877 93.1328L38.0451 84.9802L55.709 84.9802Z" fill="#EFBE74"/>
<path d="M98.7915 125.733C98.8397 128.057 100.616 129.986 102.867 129.818C104.491 129.697 106.246 129.409 109.031 128.846C112.413 128.162 115.134 125.48 117.557 122.878C119.979 120.275 121.88 117.15 123.15 113.679C123.958 111.47 124.501 109.149 124.769 106.77C125.03 104.453 123.22 102.587 120.969 102.503L102.96 101.835C100.443 101.742 98.3377 103.884 98.3916 106.483L98.7915 125.733Z" fill="#509BF8"/>
<path d="M113.456 76.8278C109.611 91.7625 83.4597 110.808 14.9463 110.098" stroke="#F8AB50" stroke-width="3" stroke-linecap="round"/>
<path d="M94.2621 90.3288L75.0252 98.9696C72.746 99.9933 71.5724 102.542 72.2765 104.94L75.5677 116.144C76.4221 119.053 79.648 120.538 82.4137 119.296L104.681 109.294C107.469 108.042 108.491 104.603 106.839 102.031L100.518 92.188C99.1803 90.1052 96.5201 89.3146 94.2621 90.3288Z" fill="#FFD88F"/>
<path d="M90.1285 96.5579L89.9234 92.2752L92.9887 95.2731C93.8375 96.1033 93.5841 97.5274 92.5011 98.0139C91.4181 98.5003 90.1852 97.7438 90.1285 96.5579Z" fill="#F7BB47"/>
<path d="M92.7103 103.34L85.5072 106.576C84.7379 106.921 84.3297 107.771 84.5409 108.588C85.1852 111.078 87.9163 112.39 90.2633 111.336L93.1278 110.049C95.4845 108.991 96.3014 106.052 94.8293 103.929C94.3571 103.248 93.4664 103.001 92.7103 103.34Z" fill="#FCEDD0"/>
<path d="M93.2788 101.608L84.2279 105.674C83.1113 106.175 82.5263 107.415 82.8491 108.596C83.8147 112.128 87.7056 113.964 91.0457 112.464L93.8494 111.204C97.2023 109.698 98.3929 105.537 96.3439 102.485C95.6723 101.485 94.3777 101.115 93.2788 101.608Z" stroke="#FCEDD0" stroke-linecap="round" stroke-dasharray="3 3"/>
<ellipse cx="92.0387" cy="96.9893" rx="1.1234" ry="0.674041" transform="rotate(-24.1885 92.0387 96.9893)" fill="#FFD88F"/>
<path d="M73.2637 99.7605L95.8086 89.6339" stroke="#FCEDD0" stroke-width="5" stroke-linecap="round"/>
<path d="M73.2637 99.7605L95.8086 89.6339" stroke="#C7C3C1" stroke-width="2" stroke-linecap="round"/>
<path d="M23.9586 18.5022C24.3577 13.3323 28.6424 9.32507 33.8274 9.27246L39.4017 9.2159C44.661 9.16254 49.0627 13.1923 49.4727 18.4359L49.5653 19.6193L23.8522 19.8802L23.9586 18.5022Z" fill="#FEBF32"/>
<path d="M24.188 16.8669L19.41 22.1708L53.9912 22.2892L49.2497 16.9527L24.188 16.8669Z" fill="#F0A734"/>
<path d="M40.4233 84.9226L46.8775 74.3922L63.5223 84.9226H40.4233Z" fill="#F8CD8C"/>
</svg>
