<svg width="67" height="67" viewBox="0 0 67 67" fill="none" xmlns="http://www.w3.org/2000/svg">
<circle cx="33.5" cy="33.5" r="33.5" fill="#509BF8"/>
<path fill-rule="evenodd" clip-rule="evenodd" d="M35.1998 24.4998C35.1998 23.8371 34.6625 23.2998 33.9998 23.2998C33.3371 23.2998 32.7998 23.8371 32.7998 24.4998V32.5498H24.7498C24.0871 32.5498 23.5498 33.0871 23.5498 33.7498C23.5498 34.4125 24.0871 34.9498 24.7498 34.9498H32.7998V42.9998C32.7998 43.6625 33.3371 44.1998 33.9998 44.1998C34.6625 44.1998 35.1998 43.6625 35.1998 42.9998V34.9498H43.2498C43.9125 34.9498 44.4498 34.4125 44.4498 33.7498C44.4498 33.0871 43.9125 32.5498 43.2498 32.5498H35.1998V24.4998Z" fill="#FEFEFE"/>
</svg>
