<svg width="101" height="64" viewBox="0 0 101 64" fill="none" xmlns="http://www.w3.org/2000/svg">
<mask id="path-1-inside-1_699_9884" fill="white">
<path fill-rule="evenodd" clip-rule="evenodd" d="M50.5 62C78.3904 62 101 48.1208 101 31C101 13.8792 78.3904 0 50.5 0C22.6096 0 0 13.8792 0 31C0 38.7908 4.68175 45.9104 12.4124 51.3563L12.1881 62.9198C12.1716 63.7691 13.1546 64.2508 13.8157 63.7175L22.4262 56.7723C30.4542 60.0741 40.1107 62 50.5 62Z"/>
</mask>
<path fill-rule="evenodd" clip-rule="evenodd" d="M50.5 62C78.3904 62 101 48.1208 101 31C101 13.8792 78.3904 0 50.5 0C22.6096 0 0 13.8792 0 31C0 38.7908 4.68175 45.9104 12.4124 51.3563L12.1881 62.9198C12.1716 63.7691 13.1546 64.2508 13.8157 63.7175L22.4262 56.7723C30.4542 60.0741 40.1107 62 50.5 62Z" fill="white"/>
<path d="M12.4124 51.3563L14.412 51.3951L14.4327 50.3331L13.5642 49.7213L12.4124 51.3563ZM12.1881 62.9198L10.1885 62.881V62.881L12.1881 62.9198ZM13.8157 63.7175L15.0714 65.2742L13.8157 63.7175ZM22.4262 56.7723L23.1869 54.9226L22.092 54.4723L21.1705 55.2156L22.4262 56.7723ZM99 31C99 38.6044 93.9713 45.8085 85.1626 51.2158C76.3869 56.6029 64.1369 60 50.5 60V64C64.7535 64 77.7534 60.4576 87.2552 54.6248C96.7239 48.8123 103 40.5164 103 31H99ZM50.5 2C64.1369 2 76.3869 5.39714 85.1626 10.7842C93.9713 16.1915 99 23.3956 99 31H103C103 21.4836 96.7239 13.1877 87.2552 7.37522C77.7534 1.54245 64.7535 -2 50.5 -2V2ZM2 31C2 23.3956 7.02873 16.1915 15.8374 10.7842C24.6131 5.39714 36.8631 2 50.5 2V-2C36.2465 -2 23.2466 1.54245 13.7448 7.37522C4.27608 13.1877 -2 21.4836 -2 31H2ZM13.5642 49.7213C6.15959 44.505 2 37.9238 2 31H-2C-2 39.6578 3.20391 47.3157 11.2606 52.9914L13.5642 49.7213ZM14.1877 62.9586L14.412 51.3951L10.4128 51.3176L10.1885 62.881L14.1877 62.9586ZM12.5601 62.1608C13.2213 61.6275 14.2042 62.1093 14.1877 62.9586L10.1885 62.881C10.1391 65.4288 13.0879 66.8742 15.0714 65.2742L12.5601 62.1608ZM21.1705 55.2156L12.5601 62.1608L15.0714 65.2742L23.6818 58.329L21.1705 55.2156ZM50.5 60C40.3503 60 30.9546 58.1174 23.1869 54.9226L21.6654 58.6219C29.9539 62.0309 39.8712 64 50.5 64V60Z" fill="#509BF8" mask="url(#path-1-inside-1_699_9884)"/>
</svg>
