<svg width="20" height="20" viewBox="0 0 20 20" fill="none" xmlns="http://www.w3.org/2000/svg">
<path d="M16.5917 12.9251H12.8167C12.5957 12.9251 12.3838 13.0129 12.2275 13.1692C12.0712 13.3254 11.9834 13.5374 11.9834 13.7584C11.9834 13.9794 12.0712 14.1914 12.2275 14.3477C12.3838 14.5039 12.5957 14.5917 12.8167 14.5917H14.8167C13.8975 15.5524 12.7121 16.2162 11.4127 16.4979C10.1133 16.7796 8.75942 16.6664 7.5249 16.1728C6.29037 15.6792 5.23164 14.8277 4.48474 13.7277C3.73784 12.6278 3.33689 11.3296 3.33341 10.0001C3.33341 9.77907 3.24562 9.56711 3.08934 9.41083C2.93306 9.25455 2.7211 9.16675 2.50008 9.16675C2.27907 9.16675 2.06711 9.25455 1.91083 9.41083C1.75455 9.56711 1.66675 9.77907 1.66675 10.0001C1.67115 11.6274 2.15193 13.2178 3.04975 14.5751C3.94757 15.9324 5.22314 16.997 6.71903 17.6378C8.21493 18.2785 9.86569 18.4672 11.4676 18.1806C13.0695 17.894 14.5524 17.1447 15.7334 16.0251V17.5001C15.7334 17.7211 15.8212 17.9331 15.9775 18.0893C16.1338 18.2456 16.3457 18.3334 16.5667 18.3334C16.7878 18.3334 16.9997 18.2456 17.156 18.0893C17.3123 17.9331 17.4001 17.7211 17.4001 17.5001V13.7501C17.398 13.5348 17.3127 13.3286 17.162 13.1748C17.0113 13.021 16.807 12.9315 16.5917 12.9251ZM10.0001 1.66675C7.86374 1.67284 5.81132 2.49918 4.26675 3.97508V2.50008C4.26675 2.27907 4.17895 2.06711 4.02267 1.91083C3.86639 1.75455 3.65443 1.66675 3.43341 1.66675C3.2124 1.66675 3.00044 1.75455 2.84416 1.91083C2.68788 2.06711 2.60008 2.27907 2.60008 2.50008V6.25008C2.60008 6.4711 2.68788 6.68306 2.84416 6.83934C3.00044 6.99562 3.2124 7.08341 3.43341 7.08341H7.18341C7.40443 7.08341 7.61639 6.99562 7.77267 6.83934C7.92895 6.68306 8.01675 6.4711 8.01675 6.25008C8.01675 6.02907 7.92895 5.81711 7.77267 5.66083C7.61639 5.50455 7.40443 5.41675 7.18341 5.41675H5.18341C6.10214 4.45664 7.28682 3.793 8.58541 3.511C9.884 3.22901 11.2372 3.34154 12.4714 3.83413C13.7056 4.32673 14.7644 5.17692 15.5119 6.27558C16.2595 7.37424 16.6616 8.67124 16.6667 10.0001C16.6667 10.2211 16.7545 10.4331 16.9108 10.5893C17.0671 10.7456 17.2791 10.8334 17.5001 10.8334C17.7211 10.8334 17.9331 10.7456 18.0893 10.5893C18.2456 10.4331 18.3334 10.2211 18.3334 10.0001C18.3334 8.90573 18.1179 7.8221 17.6991 6.81105C17.2803 5.80001 16.6665 4.88135 15.8926 4.10752C15.1188 3.3337 14.2002 2.71987 13.1891 2.30109C12.1781 1.8823 11.0944 1.66675 10.0001 1.66675Z" fill="#FEFEFE"/>
</svg>
