<svg width="443" height="96" viewBox="0 0 443 96" fill="none" xmlns="http://www.w3.org/2000/svg">
<path d="M161.93 14.99C162.584 13.4634 163.61 12.2836 165.007 11.4506C165.289 11.2827 165.545 11.0626 165.844 10.928C165.99 10.8625 166.143 10.818 166.292 10.7615C166.961 10.5083 167.727 10.3279 168.59 10.22C169.797 10.22 170.955 10.3958 172.062 10.7473C172.267 10.8125 172.46 10.9105 172.64 11.03C174.38 11.87 175.64 13.19 176.42 14.99L207.11 84.29C207.59 85.31 207.8 86.36 207.74 87.44C207.74 88.46 207.53 89.45 207.11 90.41C206.75 91.31 206.21 92.15 205.49 92.93C204.77 93.65 203.93 94.22 202.97 94.64C202.07 95.06 201.05 95.27 199.91 95.27C198.41 95.27 197 94.85 195.68 94.01C194.36 93.1701 193.37 91.97 192.71 90.41L189.019 81.2173C188.258 79.3221 186.421 78.08 184.379 78.08H153.97C151.928 78.08 150.091 79.3221 149.33 81.2173L145.64 90.41C144.98 91.97 143.99 93.1701 142.67 94.01C141.41 94.85 140.03 95.27 138.53 95.27C137.33 95.27 136.28 95.06 135.38 94.64C134.36 94.22 133.49 93.65 132.77 92.93C132.05 92.15 131.48 91.31 131.06 90.41C130.7 89.45 130.52 88.46 130.52 87.44C130.52 86.36 130.73 85.31 131.15 84.29L161.93 14.99ZM159.221 56.5349C157.891 59.8218 160.31 63.41 163.856 63.41H174.442C177.977 63.41 180.396 59.8413 179.086 56.5577L173.831 43.3812C172.161 39.1955 166.242 39.181 164.552 43.3585L159.221 56.5349Z" fill="#67A7F7"/>
<path d="M301.075 48.4482C301.075 43.9242 295.546 41.7261 292.44 45.0155L278.215 60.08C276.535 61.76 274.645 62.6 272.545 62.6C271.465 62.6 270.505 62.39 269.665 61.97C268.645 61.55 267.655 60.86 266.695 59.9L253.22 45.3837C250.128 42.053 244.555 44.2408 244.555 48.7854V86.99C244.555 89.21 243.835 91.1001 242.395 92.66C241.015 94.22 239.215 95 236.995 95C234.775 95 232.885 94.22 231.325 92.66C229.765 91.1001 228.985 89.21 228.985 86.99V18.23C228.985 17.9386 228.994 17.6822 229.011 17.4607C229.037 17.1324 229.068 16.8035 229.097 16.4755C229.166 15.7091 229.399 15.0039 229.795 14.36C230.335 13.52 230.995 12.8 231.775 12.2C232.555 11.6 233.425 11.12 234.385 10.76C235.345 10.4 236.245 10.22 237.085 10.22C238.105 10.22 239.095 10.4 240.055 10.76C241.015 11.12 241.915 11.69 242.755 12.47L269.044 39.867C271.005 41.9116 274.273 41.9189 276.244 39.8832L302.785 12.47C303.625 11.69 304.495 11.12 305.395 10.76C306.355 10.4 307.345 10.22 308.365 10.22C309.2 10.22 310.124 10.3683 311.137 10.6649C311.149 10.6683 311.164 10.6697 311.176 10.6715C311.246 10.6815 311.302 10.76 311.373 10.76C311.403 10.76 311.436 10.76 311.472 10.76C311.5 10.76 311.529 10.7655 311.556 10.7764C312.739 11.2583 313.806 12.0629 314.755 13.19C315.676 14.2189 316.23 15.321 316.417 16.4965C316.458 16.7506 316.5 17.0056 316.523 17.2619C316.545 17.4912 316.555 17.7839 316.555 18.14V87.08C316.555 89.3 315.775 91.19 314.215 92.75C312.715 94.25 310.855 95 308.635 95C306.415 95 304.585 94.25 303.145 92.75C301.765 91.19 301.075 89.3 301.075 87.08V48.4482Z" fill="#67A7F7"/>
<path d="M341.893 80.96C341.053 79.4 340.633 77.96 340.633 76.64C340.693 75.26 341.023 74.09 341.623 73.13C342.283 72.11 343.153 71.3 344.233 70.7C345.373 70.1 346.573 69.8 347.833 69.8C349.033 69.8 350.233 70.1 351.433 70.7C352.693 71.24 353.833 72.14 354.853 73.4C356.893 76.46 359.233 78.71 361.873 80.15C364.573 81.59 367.993 82.31 372.133 82.31C374.053 82.31 375.883 82.07 377.623 81.59C379.423 81.11 381.013 80.42 382.393 79.52C383.773 78.56 384.883 77.42 385.723 76.1C386.563 74.72 386.983 73.19 386.983 71.51C386.983 69.59 386.473 67.97 385.453 66.65C384.433 65.27 383.113 64.1 381.493 63.14C379.873 62.18 378.043 61.37 376.003 60.71C374.023 60.05 372.073 59.45 370.153 58.91C366.673 57.71 363.283 56.42 359.983 55.04C356.683 53.6 353.743 51.92 351.163 50C348.643 48.08 346.603 45.83 345.043 43.25C343.483 40.67 342.703 37.61 342.703 34.07C342.703 30.29 343.513 26.93 345.133 23.99C346.813 20.99 349.003 18.47 351.703 16.43C354.403 14.33 357.493 12.74 360.973 11.66C364.453 10.58 368.023 10.04 371.683 10.04C374.263 10.04 376.843 10.31 379.423 10.85C382.063 11.33 384.523 12.08 386.803 13.1C389.143 14.06 391.243 15.32 393.103 16.88C394.963 18.38 396.433 20.15 397.513 22.19C398.293 23.75 398.563 25.19 398.323 26.51C398.143 27.83 397.603 28.97 396.703 29.93C395.263 31.49 393.523 32.27 391.483 32.27C390.882 32.27 390.282 32.178 389.681 31.9939C389.196 31.8453 388.767 31.5616 388.381 31.2335C387.323 30.3361 386.287 29.4816 385.273 28.67C384.073 27.65 382.843 26.78 381.583 26.06C380.323 25.34 378.973 24.77 377.533 24.35C376.093 23.93 374.503 23.72 372.763 23.72C370.843 23.72 369.013 23.9 367.273 24.26C365.533 24.62 364.003 25.22 362.683 26.06C361.363 26.84 360.313 27.86 359.533 29.12C358.753 30.38 358.363 31.88 358.363 33.62C358.363 35.3 358.783 36.77 359.623 38.03C360.463 39.23 361.603 40.31 363.043 41.27C364.483 42.17 366.163 42.98 368.083 43.7C370.063 44.42 372.193 45.14 374.473 45.86C378.133 47 381.613 48.23 384.913 49.55C388.273 50.87 391.213 52.49 393.733 54.41C396.313 56.27 398.353 58.55 399.853 61.25C401.353 63.89 402.103 67.1 402.103 70.88C402.103 74.42 401.323 77.72 399.763 80.78C398.263 83.84 396.163 86.51 393.463 88.79C390.823 91.01 387.673 92.78 384.013 94.1C380.353 95.36 376.393 95.99 372.133 95.99C369.253 95.99 366.313 95.69 363.313 95.09C360.313 94.49 357.433 93.59 354.673 92.39C351.973 91.19 349.513 89.63 347.293 87.71C345.073 85.79 343.273 83.54 341.893 80.96Z" fill="#67A7F7"/>
<circle cx="19" cy="19" r="19" fill="#67A7F7"/>
<path d="M114 37.5C114 34.9392 113.47 32.4035 112.44 30.0377C111.409 27.6718 109.899 25.5222 107.996 23.7114C106.092 21.9007 103.832 20.4643 101.345 19.4843C98.8578 18.5044 96.1921 18 93.5 18C90.8079 18 88.1422 18.5044 85.655 19.4843C83.1678 20.4643 80.9079 21.9007 79.0043 23.7114C77.1007 25.5222 75.5907 27.6718 74.5605 30.0377C73.5302 32.4035 73 34.9392 73 37.5L93.5 37.5H114Z" fill="#4D96F2"/>
<path fill-rule="evenodd" clip-rule="evenodd" d="M57.0122 71.4397C68.3717 71.4397 77.5804 62.7193 77.5804 51.9623C77.5804 50.8896 77.4888 49.8371 77.3127 48.8115H108.844C108.844 61.1941 103.412 73.0695 93.7432 81.8252C84.0742 90.581 70.9603 95.5 57.2863 95.5C43.6123 95.5 30.4984 90.581 20.8294 81.8252C11.1605 73.0695 5.72852 61.1941 5.72852 48.8115L36.7116 48.8115C36.5355 49.8371 36.4439 50.8896 36.4439 51.9623C36.4439 62.7193 45.6526 71.4397 57.0122 71.4397Z" fill="#67A7F7"/>
<rect x="427" y="10" width="15" height="15" fill="#4D96F2"/>
<path d="M427 35H442V88.5C442 92.6421 438.642 96 434.5 96C430.358 96 427 92.6421 427 88.5V35Z" fill="#67A7F7"/>
</svg>
